<svg width="50" height="50" viewBox="0 0 50 50" fill="none" xmlns="http://www.w3.org/2000/svg">
<g filter="url(#filter0_d_18_62)">
<rect x="16" y="19" width="18" height="15" rx="2" stroke="white" stroke-width="2"/>
<path d="M16 23C16 21.1144 16 20.1716 16.5858 19.5858C17.1716 19 18.1144 19 20 19H30C31.8856 19 32.8284 19 33.4142 19.5858C34 20.1716 34 21.1144 34 23H16Z" fill="white"/>
<path d="M20 16L20 19" stroke="white" stroke-width="2" stroke-linecap="round"/>
<path d="M30 16L30 19" stroke="white" stroke-width="2" stroke-linecap="round"/>
<rect x="20" y="25" width="4" height="2" rx="0.5" fill="white"/>
<rect x="20" y="29" width="4" height="2" rx="0.5" fill="white"/>
<rect x="26" y="25" width="4" height="2" rx="0.5" fill="white"/>
<rect x="26" y="29" width="4" height="2" rx="0.5" fill="white"/>
</g>
<defs>
<filter id="filter0_d_18_62" x="-2" y="-2" width="54" height="54" filterUnits="userSpaceOnUse" color-interpolation-filters="sRGB">
<feFlood flood-opacity="0" result="BackgroundImageFix"/>
<feColorMatrix in="SourceAlpha" type="matrix" values="0 0 0 0 0 0 0 0 0 0 0 0 0 0 0 0 0 0 127 0" result="hardAlpha"/>
<feOffset/>
<feGaussianBlur stdDeviation="7.5"/>
<feComposite in2="hardAlpha" operator="out"/>
<feColorMatrix type="matrix" values="0 0 0 0 0.921569 0 0 0 0 0.921569 0 0 0 0 0.921569 0 0 0 0.21 0"/>
<feBlend mode="normal" in2="BackgroundImageFix" result="effect1_dropShadow_18_62"/>
<feBlend mode="normal" in="SourceGraphic" in2="effect1_dropShadow_18_62" result="shape"/>
</filter>
</defs>
</svg>
