<svg width="66" height="78" viewBox="0 0 66 78" fill="none" xmlns="http://www.w3.org/2000/svg">
<g filter="url(#filter0_d_18_80)">
<path d="M40.875 22.25C44.035 22.25 45.6151 22.25 46.7501 23.0084C47.2414 23.3367 47.6633 23.7586 47.9916 24.2499C48.75 25.3849 48.75 26.965 48.75 30.125V51.5C48.75 55.7426 48.75 57.864 47.432 59.182C46.114 60.5 43.9926 60.5 39.75 60.5H26.25C22.0074 60.5 19.886 60.5 18.568 59.182C17.25 57.864 17.25 55.7426 17.25 51.5V30.125C17.25 26.965 17.25 25.3849 18.0084 24.2499C18.3367 23.7586 18.7586 23.3367 19.2499 23.0084C20.3849 22.25 21.965 22.25 25.125 22.25" stroke="white" stroke-width="4"/>
<path d="M26.25 22.25C26.25 19.7647 28.2647 17.75 30.75 17.75H35.25C37.7353 17.75 39.75 19.7647 39.75 22.25C39.75 24.7353 37.7353 26.75 35.25 26.75H30.75C28.2647 26.75 26.25 24.7353 26.25 22.25Z" stroke="white" stroke-width="4"/>
<path d="M26.25 38L39.75 38" stroke="white" stroke-width="4" stroke-linecap="round"/>
<path d="M26.25 47L35.25 47" stroke="white" stroke-width="4" stroke-linecap="round"/>
</g>
<defs>
<filter id="filter0_d_18_80" x="-9" y="-4" width="84" height="84" filterUnits="userSpaceOnUse" color-interpolation-filters="sRGB">
<feFlood flood-opacity="0" result="BackgroundImageFix"/>
<feColorMatrix in="SourceAlpha" type="matrix" values="0 0 0 0 0 0 0 0 0 0 0 0 0 0 0 0 0 0 127 0" result="hardAlpha"/>
<feOffset/>
<feGaussianBlur stdDeviation="7.5"/>
<feComposite in2="hardAlpha" operator="out"/>
<feColorMatrix type="matrix" values="0 0 0 0 0.921569 0 0 0 0 0.921569 0 0 0 0 0.921569 0 0 0 0.21 0"/>
<feBlend mode="normal" in2="BackgroundImageFix" result="effect1_dropShadow_18_80"/>
<feBlend mode="normal" in="SourceGraphic" in2="effect1_dropShadow_18_80" result="shape"/>
</filter>
</defs>
</svg>
